<?xml version="1.0" standalone="no"?>
<!DOCTYPE svg PUBLIC "-//W3C//DTD SVG 20010904//EN"
 "http://www.w3.org/TR/2001/REC-SVG-20010904/DTD/svg10.dtd">
<svg version="1.0" xmlns="http://www.w3.org/2000/svg"
 width="1080.000000pt" height="189.000000pt" viewBox="0 0 1080.000000 189.000000"
 preserveAspectRatio="xMidYMid meet">

<g transform="translate(0.000000,189.000000) scale(0.100000,-0.100000)"
fill="#000000" stroke="none">
<path d="M1319 1635 c-37 -41 -84 -87 -118 -115 -46 -38 -42 -24 -70 -287 -5
-50 -14 -101 -20 -112 -6 -11 -11 -51 -11 -90 0 -41 -4 -71 -10 -71 -6 0 -10
-38 -10 -95 0 -57 -4 -95 -10 -95 -6 0 -10 -35 -10 -84 0 -47 -4 -88 -10 -91
-13 -8 -13 -125 0 -125 5 0 35 -26 65 -58 31 -31 59 -60 63 -64 89 -90 127
-127 145 -145 12 -13 25 -23 29 -23 4 0 24 16 44 35 19 19 38 35 40 35 7 0 54
48 54 54 0 7 89 96 96 96 9 0 34 28 34 37 0 5 14 17 31 27 27 16 30 22 24 50
-3 17 -9 70 -12 119 -3 48 -9 87 -14 87 -5 0 -9 41 -9 90 0 53 -4 90 -10 90
-6 0 -10 38 -10 95 0 57 -4 95 -10 95 -6 0 -10 30 -10 71 0 39 -5 79 -11 91
-6 11 -13 54 -16 96 -5 79 -19 132 -34 132 -5 0 -9 9 -9 20 0 12 -7 20 -16 20
-18 0 -44 23 -44 39 0 6 -3 11 -7 11 -16 0 -63 48 -63 64 0 9 -6 16 -14 16 -8
0 -21 3 -29 6 -9 3 -25 -6 -38 -21z"/>
<path d="M4800 965 c0 -488 0 -495 20 -495 16 0 20 7 20 30 0 17 5 30 10 30 6
0 10 9 10 20 0 27 7 25 40 -10 15 -16 31 -30 35 -30 3 0 13 -7 21 -15 8 -8 34
-20 57 -26 53 -14 189 -8 195 9 2 7 11 12 21 12 9 0 23 9 31 20 8 11 19 20 25
20 6 0 21 20 35 45 14 25 28 45 32 45 5 0 8 14 8 30 0 17 5 30 10 30 6 0 10
53 10 140 0 87 -4 140 -10 140 -5 0 -10 8 -10 18 0 9 -7 26 -15 36 -8 11 -15
26 -15 34 0 22 -60 76 -105 94 -91 38 -217 30 -285 -17 -22 -15 -40 -32 -40
-37 0 -10 -25 -38 -34 -38 -3 0 -6 92 -6 205 l0 205 -30 0 -30 0 0 -495z m368
149 c34 -7 110 -74 129 -114 6 -14 15 -43 19 -65 16 -81 3 -295 -17 -295 -5 0
-9 -7 -9 -16 0 -14 -19 -34 -74 -81 -9 -7 -20 -13 -26 -13 -5 0 -10 -4 -10
-10 0 -6 -35 -10 -85 -10 -50 0 -85 4 -85 10 0 6 -9 10 -20 10 -44 0 -110 92
-110 153 0 20 -4 37 -10 37 -6 0 -10 40 -10 100 0 60 4 100 10 100 6 0 10 18
10 40 0 22 5 40 10 40 6 0 10 5 10 10 0 26 74 98 106 103 48 7 129 7 162 1z"/>
<path d="M2490 1399 c-25 -6 -47 -14 -50 -18 -3 -3 -17 -12 -32 -20 -15 -8
-30 -22 -33 -31 -3 -10 -14 -25 -25 -35 -11 -10 -20 -26 -20 -37 0 -10 -4 -18
-10 -18 -6 0 -10 -28 -10 -65 0 -37 4 -65 10 -65 6 0 10 -9 10 -20 0 -11 3
-20 8 -20 4 0 16 -15 26 -34 12 -23 34 -41 69 -57 29 -13 54 -27 55 -31 2 -5
17 -8 33 -8 16 0 29 -4 29 -10 0 -5 9 -10 19 -10 11 0 23 -4 26 -10 3 -5 15
-10 26 -10 10 0 19 -4 19 -10 0 -5 14 -10 30 -10 17 0 30 -3 30 -8 0 -4 15
-16 34 -26 21 -11 39 -31 46 -50 6 -17 16 -39 21 -48 12 -24 12 -88 -1 -88 -5
0 -10 -10 -10 -22 -1 -28 -25 -58 -62 -77 -16 -8 -28 -18 -28 -23 0 -4 -13 -8
-30 -8 -16 0 -30 -4 -30 -10 0 -6 -43 -10 -110 -10 -67 0 -110 4 -110 10 0 6
-20 10 -45 10 -25 0 -45 5 -45 10 0 6 -9 10 -20 10 -11 0 -20 -4 -20 -10 0 -5
5 -10 10 -10 6 0 10 -9 10 -20 0 -13 7 -20 19 -20 11 0 21 -6 24 -12 5 -18
339 -18 345 0 2 6 12 12 21 12 26 0 131 104 131 129 0 12 5 21 10 21 6 0 10
28 10 65 0 37 -4 65 -10 65 -5 0 -10 12 -10 26 0 27 -29 59 -82 92 -16 9 -28
20 -28 24 0 4 -9 8 -20 8 -11 0 -20 5 -20 10 0 6 -9 10 -20 10 -11 0 -29 5
-40 10 -44 22 -57 27 -104 41 -27 8 -51 20 -53 27 -3 6 -12 12 -20 12 -25 0
-80 68 -86 107 -11 64 3 119 38 157 18 20 40 36 49 36 9 0 16 5 16 10 0 6 16
10 35 10 19 0 35 5 35 10 0 6 20 10 44 10 25 0 48 -4 51 -10 3 -5 28 -10 56
-10 27 0 49 -4 49 -10 0 -5 14 -10 30 -10 17 0 30 -4 30 -10 0 -5 5 -10 10
-10 6 0 10 12 10 28 0 22 -7 30 -41 45 -50 22 -233 31 -299 16z"/>
<path d="M7337 1338 c-3 -29 -6 -236 -6 -460 l0 -408 24 -6 c44 -11 388 3 428
17 20 8 37 17 37 21 0 5 11 8 25 8 14 0 25 5 25 10 0 6 5 10 11 10 6 0 16 6
23 13 12 12 49 40 72 55 9 6 48 83 74 147 25 60 40 269 21 288 -6 6 -11 23
-11 38 0 14 -11 47 -25 73 -14 26 -25 53 -25 59 0 7 -9 19 -20 27 -11 8 -20
20 -20 26 0 6 -13 17 -30 24 -16 7 -30 16 -30 21 0 5 -7 9 -15 9 -8 0 -15 5
-15 10 0 6 -7 10 -15 10 -8 0 -15 5 -15 10 0 6 -11 10 -25 10 -14 0 -25 4 -25
9 0 14 -87 22 -281 27 l-177 5 -5 -53z m411 -89 c17 -8 32 -17 32 -21 0 -4 7
-8 15 -8 15 0 65 -43 65 -55 0 -4 7 -13 15 -21 8 -9 17 -27 20 -42 3 -15 12
-48 20 -73 19 -61 19 -141 -1 -204 -9 -27 -20 -65 -26 -84 -13 -42 -80 -110
-133 -135 -32 -16 -64 -20 -160 -20 l-120 -1 -3 330 c-1 181 0 336 3 344 4 11
28 13 123 8 64 -3 132 -11 150 -18z"/>
<path d="M880 1209 c0 -6 -61 -71 -135 -145 -74 -74 -135 -140 -135 -147 0 -7
14 -23 31 -37 34 -28 52 -46 174 -173 l85 -88 25 25 25 25 -120 120 c-66 65
-120 124 -120 131 0 7 54 66 120 132 l120 119 -25 25 c-26 25 -45 31 -45 13z"/>
<path d="M1782 1185 c-11 -13 6 -34 108 -136 66 -66 120 -125 120 -129 0 -5
-54 -63 -121 -130 -106 -106 -118 -122 -105 -135 8 -8 22 -15 31 -15 20 0 285
261 285 281 0 8 -10 24 -22 36 -19 18 -86 85 -146 145 -99 100 -123 113 -150
83z"/>
<path d="M3936 1163 c-21 -2 -44 -10 -51 -16 -7 -7 -25 -21 -39 -31 -14 -10
-26 -23 -26 -29 0 -11 -39 -47 -52 -47 -4 0 -8 27 -8 60 0 52 -2 60 -19 60
-10 0 -22 -7 -25 -16 -8 -20 -8 -622 0 -651 5 -17 14 -23 35 -23 l29 0 0 245
c0 157 4 245 10 245 6 0 10 7 10 15 0 16 25 60 47 83 7 7 13 18 13 23 0 5 6 9
14 9 8 0 16 6 18 12 3 9 30 13 84 13 76 0 104 9 104 34 0 6 -8 11 -17 11 -10
0 -34 2 -53 4 -19 2 -53 1 -74 -1z"/>
<path d="M5705 1162 c-52 -3 -155 -39 -155 -55 0 -16 31 -41 38 -30 18 27 146
51 216 41 38 -5 56 -15 82 -42 20 -21 34 -46 34 -61 0 -14 5 -25 10 -25 6 0
10 -26 10 -58 l0 -58 -157 -12 c-91 -6 -159 -15 -161 -22 -2 -5 -12 -10 -23
-10 -10 0 -19 -4 -19 -10 0 -5 -5 -10 -10 -10 -6 0 -27 -17 -48 -37 -37 -37
-37 -37 -37 -124 l0 -86 49 -46 c30 -29 62 -49 83 -53 50 -9 186 1 191 15 2 6
9 11 16 11 7 0 28 18 47 40 49 56 69 54 69 -10 0 -47 2 -50 26 -50 l26 0 -4
287 c-2 218 -6 287 -15 291 -7 2 -13 10 -13 18 0 16 -44 64 -58 64 -5 0 -15 6
-21 14 -13 15 -90 23 -176 18z m219 -338 c12 -5 16 -20 16 -60 0 -30 -4 -54
-10 -54 -5 0 -10 -16 -10 -35 0 -19 -4 -35 -10 -35 -5 0 -10 -7 -10 -16 0 -26
-76 -94 -105 -94 -14 0 -25 -4 -25 -10 0 -6 -32 -10 -75 -10 -43 0 -75 4 -75
10 0 6 -5 10 -10 10 -14 0 -60 46 -60 60 0 5 -4 10 -10 10 -5 0 -10 23 -10 50
0 28 5 50 10 50 6 0 10 9 10 20 0 11 4 20 10 20 5 0 20 11 34 25 14 14 34 25
46 25 11 0 20 5 20 10 0 6 24 10 53 10 28 0 59 5 67 10 17 11 119 14 144 4z"/>
<path d="M3000 880 c0 -180 4 -280 10 -280 6 0 10 -7 10 -15 0 -31 50 -95 73
-95 9 0 17 -5 19 -12 3 -8 38 -13 100 -16 90 -4 101 -2 157 24 34 16 61 32 61
35 0 12 37 48 44 42 3 -3 6 -26 6 -50 0 -41 1 -43 30 -43 l30 0 0 339 c0 300
-2 340 -16 345 -44 17 -44 18 -44 -223 0 -143 -4 -232 -10 -236 -5 -3 -10 -21
-10 -38 0 -45 -43 -107 -74 -107 -9 0 -16 -4 -16 -10 0 -5 -9 -10 -20 -10 -11
0 -20 -4 -20 -10 0 -6 -37 -10 -90 -10 -53 0 -90 4 -90 10 0 6 -7 10 -16 10
-20 0 -38 18 -63 63 -18 33 -20 56 -22 289 -1 139 -4 258 -6 265 -3 7 -14 13
-24 13 -18 0 -19 -12 -19 -280z"/>
<path d="M4275 1151 c-6 -5 -27 -14 -47 -21 -21 -6 -38 -16 -38 -21 0 -17 31
-43 38 -32 11 15 41 26 107 37 80 15 162 3 186 -27 10 -12 23 -27 29 -34 5 -7
10 -21 10 -33 0 -11 5 -20 10 -20 15 0 13 -120 -2 -125 -7 -3 -78 -9 -158 -14
-90 -5 -146 -13 -148 -20 -2 -6 -10 -11 -18 -11 -8 0 -14 -4 -14 -10 0 -5 -7
-10 -16 -10 -25 0 -83 -69 -90 -107 -4 -19 -4 -58 -2 -88 4 -49 9 -58 53 -99
29 -28 61 -48 82 -52 50 -9 186 1 191 15 2 6 10 11 19 11 13 0 40 25 84 78 17
21 29 3 29 -43 0 -43 10 -55 46 -55 13 0 14 36 11 248 -2 136 -7 261 -11 277
-4 17 -9 40 -12 51 -4 25 -46 71 -86 97 -22 13 -50 17 -136 17 -59 0 -112 -4
-117 -9z m305 -386 c0 -36 -4 -73 -8 -83 -5 -9 -19 -38 -32 -64 -12 -27 -28
-48 -34 -48 -6 0 -18 -9 -26 -20 -8 -12 -26 -20 -42 -20 -15 0 -28 -4 -28 -10
0 -6 -32 -10 -75 -10 -43 0 -75 4 -75 10 0 6 -5 10 -10 10 -17 0 -60 47 -60
65 0 8 -4 15 -10 15 -5 0 -10 16 -10 35 0 19 5 35 10 35 6 0 10 9 10 20 0 27
63 90 90 90 11 0 20 5 20 10 0 6 26 10 58 11 31 0 66 4 77 9 11 5 48 9 83 9
l62 1 0 -65z"/>
<path d="M6050 1145 c0 -8 5 -15 10 -15 6 0 10 -9 10 -20 0 -11 5 -20 10 -20
6 0 10 -13 10 -30 0 -16 5 -30 10 -30 6 0 10 -9 10 -19 0 -11 4 -22 9 -25 10
-7 41 -97 41 -120 0 -9 5 -16 10 -16 6 0 10 -13 10 -30 0 -16 5 -30 10 -30 6
0 10 -11 10 -25 0 -14 5 -25 10 -25 6 0 10 -9 10 -20 0 -11 5 -20 10 -20 6 0
10 -13 10 -30 0 -16 4 -30 8 -30 4 0 13 -21 20 -47 7 -27 19 -61 27 -76 17
-32 20 -73 6 -82 -5 -3 -13 -20 -16 -38 -12 -53 -47 -120 -82 -154 -29 -30
-38 -33 -93 -33 -52 0 -60 -2 -60 -19 0 -55 158 -36 211 25 9 11 19 31 23 47
3 15 11 27 16 27 6 0 10 9 10 20 0 11 5 20 10 20 6 0 10 11 10 25 0 14 5 25
10 25 6 0 10 14 10 30 0 17 3 30 8 30 9 0 24 36 47 112 9 32 21 60 26 64 5 3
9 14 9 25 0 10 5 19 10 19 6 0 10 14 10 30 0 17 5 30 10 30 6 0 10 11 10 25 0
14 5 25 10 25 6 0 10 9 10 20 0 11 8 34 18 52 10 18 27 60 37 93 10 33 22 64
27 70 4 5 8 17 8 27 0 10 5 18 10 18 6 0 10 14 10 30 0 17 5 30 10 30 6 0 10
11 10 25 0 15 -6 25 -14 25 -28 0 -46 -12 -46 -31 0 -22 -23 -87 -51 -142 -10
-22 -19 -45 -19 -53 0 -8 -4 -14 -10 -14 -5 0 -10 -13 -10 -30 0 -16 -4 -30
-10 -30 -5 0 -10 -11 -10 -25 0 -14 -4 -25 -10 -25 -5 0 -10 -7 -10 -15 0 -8
-6 -29 -14 -47 -8 -18 -20 -53 -27 -78 -7 -25 -16 -49 -21 -54 -4 -6 -8 -20
-8 -33 0 -13 -4 -23 -10 -23 -5 0 -10 -7 -10 -15 0 -8 -4 -15 -10 -15 -5 0
-10 11 -10 24 0 14 -4 28 -10 31 -5 3 -10 17 -10 30 0 13 -3 25 -7 27 -11 4
-43 101 -43 127 0 11 -4 21 -10 21 -5 0 -10 11 -10 25 0 14 -4 25 -10 25 -5 0
-10 9 -10 20 0 11 -4 20 -10 20 -5 0 -10 14 -10 30 0 17 -4 30 -10 30 -5 0
-10 9 -10 19 0 11 -4 23 -10 26 -5 3 -10 17 -10 30 0 13 -4 27 -10 30 -5 3
-10 18 -10 32 0 42 -30 83 -62 83 -18 0 -28 -5 -28 -15z"/>
<path d="M6788 1141 c-42 -14 -48 -20 -48 -43 0 -16 5 -28 10 -28 6 0 10 5 10
10 0 6 8 10 18 10 10 0 23 5 30 12 18 18 224 18 229 1 3 -7 9 -13 15 -13 12 0
32 -20 46 -47 16 -30 16 -162 0 -168 -7 -2 -73 -8 -146 -13 -74 -6 -139 -15
-145 -21 -6 -6 -19 -11 -29 -11 -10 0 -18 -4 -18 -10 0 -5 -7 -10 -16 -10 -20
0 -44 -24 -44 -43 0 -9 -4 -17 -8 -19 -5 -2 -16 -25 -24 -52 -16 -48 -16 -52
6 -112 24 -66 45 -94 69 -94 9 0 17 -6 19 -12 6 -18 210 -18 215 0 3 6 12 12
22 12 9 0 23 9 31 20 8 11 19 20 25 20 6 0 16 9 23 20 7 11 16 20 20 20 12 0
32 -47 32 -75 0 -18 5 -25 20 -25 20 0 20 7 20 275 0 177 -4 275 -10 275 -5 0
-10 11 -10 25 0 14 -4 25 -10 25 -5 0 -10 8 -10 18 0 10 -19 29 -45 45 -43 25
-53 27 -148 26 -64 -1 -120 -8 -149 -18z m322 -390 c0 -86 -16 -138 -55 -177
-13 -13 -31 -24 -40 -24 -8 0 -15 -4 -15 -10 0 -5 -11 -10 -25 -10 -14 0 -25
-4 -25 -10 0 -6 -32 -10 -75 -10 -43 0 -75 4 -75 10 0 6 -7 10 -16 10 -18 0
-44 23 -44 39 0 6 -4 11 -10 11 -6 0 -10 30 -10 70 0 40 4 70 10 70 6 0 10 5
10 11 0 16 26 39 44 39 9 0 16 5 16 10 0 6 11 10 25 10 14 0 25 5 25 10 0 6
24 10 53 10 28 0 59 5 67 10 8 5 43 10 78 10 l62 0 0 -79z"/>
<path d="M8343 1136 c-51 -30 -113 -90 -113 -111 0 -8 -4 -15 -10 -15 -5 0
-10 -6 -10 -14 0 -8 -6 -16 -12 -18 -18 -6 -18 -330 0 -335 6 -3 12 -13 12
-24 0 -10 5 -19 10 -19 6 0 10 -5 10 -11 0 -10 50 -61 98 -101 42 -34 198 -48
329 -29 77 11 93 26 93 84 0 52 -6 60 -33 46 -22 -12 -144 -32 -192 -32 -85 0
-185 64 -185 117 0 14 -4 26 -10 26 -5 0 -10 16 -10 35 l0 35 235 0 235 0 0
90 c0 53 -4 90 -10 90 -5 0 -10 14 -10 30 0 17 -4 30 -10 30 -5 0 -10 6 -10
13 0 6 -11 25 -24 40 -14 16 -26 32 -28 37 -2 4 -26 19 -55 34 -46 23 -64 26
-155 26 -90 0 -108 -3 -145 -24z m187 -76 c0 -5 8 -10 18 -10 20 0 72 -42 72
-59 0 -6 5 -11 10 -11 6 0 10 -22 10 -50 l0 -50 -160 0 -160 0 0 30 c0 17 5
30 10 30 6 0 10 9 10 20 0 11 5 20 10 20 6 0 10 5 10 10 0 19 48 60 70 60 11
0 20 5 20 10 0 6 18 10 40 10 22 0 40 -4 40 -10z"/>
<path d="M8814 1149 c-3 -6 -2 -14 3 -18 13 -8 43 -92 43 -118 0 -12 5 -25 10
-28 6 -3 10 -15 10 -26 0 -10 5 -19 10 -19 6 0 10 -13 10 -30 0 -16 5 -30 10
-30 6 0 10 -9 10 -19 0 -11 5 -23 10 -26 6 -3 10 -15 10 -26 0 -10 5 -19 10
-19 6 0 10 -8 10 -18 0 -9 10 -42 21 -72 12 -30 24 -67 26 -83 3 -15 9 -27 14
-27 5 0 9 -9 9 -20 0 -11 5 -20 10 -20 6 0 10 -11 10 -25 0 -49 27 -65 110
-65 l76 0 18 63 c11 34 23 66 27 72 5 5 9 17 9 27 0 10 5 18 10 18 6 0 10 14
10 30 0 17 5 30 10 30 6 0 10 11 10 25 0 14 4 25 9 25 5 0 11 10 14 23 3 12
14 47 26 77 12 30 21 63 21 72 0 10 5 18 10 18 6 0 10 11 10 25 0 14 5 25 10
25 6 0 10 9 10 20 0 11 5 20 10 20 6 0 10 14 10 30 0 17 5 30 10 30 6 0 10 9
10 19 0 11 5 23 11 27 21 12 -14 24 -74 24 -63 0 -87 -14 -87 -49 0 -12 -4
-21 -10 -21 -5 0 -10 -13 -10 -30 0 -16 -4 -30 -10 -30 -5 0 -10 -11 -10 -25
0 -14 -4 -25 -10 -25 -5 0 -10 -10 -10 -21 0 -27 -52 -183 -62 -187 -5 -2 -8
-15 -8 -28 0 -13 -4 -24 -10 -24 -5 0 -10 -18 -10 -40 0 -22 -4 -40 -10 -40
-5 0 -10 -11 -10 -25 0 -14 -4 -25 -10 -25 -5 0 -10 8 -10 18 0 9 -11 49 -25
87 -13 39 -25 80 -25 93 0 12 -4 22 -10 22 -5 0 -10 11 -10 25 0 14 -4 25 -10
25 -5 0 -10 14 -10 30 0 17 -4 30 -10 30 -5 0 -10 14 -10 30 0 17 -4 30 -10
30 -5 0 -10 11 -10 25 0 14 -4 25 -9 25 -5 0 -12 18 -16 40 -4 22 -11 42 -16
46 -5 3 -9 14 -9 25 0 17 -7 19 -69 19 -41 0 -73 -5 -77 -11z"/>
<path d="M9590 1135 c0 -8 -4 -15 -10 -15 -5 0 -10 -11 -10 -25 0 -14 -4 -25
-10 -25 -5 0 -10 -13 -10 -30 0 -16 -4 -30 -10 -30 -5 0 -10 -8 -10 -18 0 -9
-9 -42 -21 -72 -11 -30 -23 -63 -26 -72 -3 -10 -9 -18 -14 -18 -5 0 -9 -13 -9
-30 0 -16 -4 -30 -10 -30 -5 0 -10 -9 -10 -19 0 -11 -4 -23 -10 -26 -5 -3 -10
-15 -10 -26 0 -10 -4 -19 -10 -19 -5 0 -10 -18 -10 -39 0 -22 -4 -43 -10 -46
-5 -3 -10 -15 -10 -26 0 -10 -4 -19 -10 -19 -5 0 -10 -8 -10 -18 0 -10 -7 -28
-16 -40 -15 -22 -15 -22 40 -22 49 0 56 2 56 20 0 11 5 20 10 20 6 0 10 11 10
25 0 14 5 25 10 25 6 0 10 9 10 20 0 11 5 20 10 20 6 0 10 16 10 36 0 19 16
69 35 111 19 42 35 82 35 89 0 8 5 14 10 14 6 0 10 11 10 25 0 14 5 25 10 25
6 0 10 11 10 24 0 14 5 28 10 31 6 3 10 19 10 34 0 15 3 31 7 34 3 4 14 30 25
59 10 28 23 55 30 60 8 4 -12 8 -44 8 -45 0 -58 -3 -58 -15z"/>
<path d="M9770 1134 c0 -8 -7 -22 -15 -30 -8 -9 -15 -24 -15 -35 0 -10 -4 -19
-10 -19 -5 0 -10 -11 -10 -25 0 -14 -4 -25 -10 -25 -5 0 -10 -13 -10 -30 0
-16 -4 -30 -10 -30 -5 0 -10 -9 -10 -19 0 -11 -4 -23 -10 -26 -5 -3 -10 -16
-10 -28 0 -12 -6 -38 -14 -57 -7 -19 -19 -50 -25 -67 -7 -18 -17 -33 -22 -33
-5 0 -9 -11 -9 -25 0 -14 -4 -25 -10 -25 -5 0 -10 -13 -10 -29 0 -17 -4 -33
-10 -36 -5 -3 -10 -15 -10 -26 0 -10 -4 -19 -10 -19 -5 0 -10 -18 -10 -40 l0
-40 50 0 c43 0 50 3 50 20 0 11 5 20 10 20 6 0 10 13 10 29 0 17 5 33 10 36 6
3 10 14 10 25 0 10 7 20 15 24 8 3 15 17 15 31 0 14 5 25 10 25 6 0 10 11 10
25 0 14 5 25 10 25 6 0 10 14 10 30 0 17 5 30 10 30 6 0 10 9 10 19 0 11 5 23
10 26 6 3 10 19 10 35 0 16 5 32 10 35 6 3 10 17 10 30 0 13 4 26 9 30 5 3 12
19 16 35 4 17 11 30 16 30 5 0 9 9 9 20 0 11 5 20 10 20 6 0 10 14 10 30 0 17
5 30 10 30 6 0 10 5 10 10 0 6 -27 10 -60 10 -48 0 -60 -3 -60 -16z"/>
<path d="M10053 1143 c9 -2 23 -2 30 0 6 3 -1 5 -18 5 -16 0 -22 -2 -12 -5z"/>
<path d="M9900 969 c0 -5 5 -7 10 -4 6 3 10 8 10 11 0 2 -4 4 -10 4 -5 0 -10
-5 -10 -11z"/>
<path d="M10025 910 c-3 -5 -1 -10 4 -10 6 0 11 5 11 10 0 6 -2 10 -4 10 -3 0
-8 -4 -11 -10z"/>
<path d="M10000 870 c0 -5 5 -10 10 -10 6 0 10 5 10 10 0 6 -4 10 -10 10 -5 0
-10 -4 -10 -10z"/>
<path d="M9850 860 c0 -5 5 -10 10 -10 6 0 10 5 10 10 0 6 -4 10 -10 10 -5 0
-10 -4 -10 -10z"/>
<path d="M9980 805 c0 -8 5 -15 10 -15 6 0 10 7 10 15 0 8 -4 15 -10 15 -5 0
-10 -7 -10 -15z"/>
<path d="M9830 800 c0 -5 5 -10 10 -10 6 0 10 5 10 10 0 6 -4 10 -10 10 -5 0
-10 -4 -10 -10z"/>
<path d="M9850 480 c0 -5 5 -10 10 -10 6 0 10 5 10 10 0 6 -4 10 -10 10 -5 0
-10 -4 -10 -10z"/>
</g>
</svg>
